<?xml version="1.0" encoding="utf-8"?>
<!-- Generator: Adobe Illustrator 15.0.0, SVG Export Plug-In . SVG Version: 6.00 Build 0)  -->
<!DOCTYPE svg PUBLIC "-//W3C//DTD SVG 1.1//EN" "http://www.w3.org/Graphics/SVG/1.1/DTD/svg11.dtd">
<svg version="1.1" id="Layer_3" xmlns="http://www.w3.org/2000/svg" xmlns:xlink="http://www.w3.org/1999/xlink" x="0px" y="0px"
	 width="595.28px" height="595.28px" viewBox="0 0 595.28 595.28" enable-background="new 0 0 595.28 595.28" xml:space="preserve">
<g>
	<path fill-rule="evenodd" clip-rule="evenodd" fill="#C49A6C" d="M195.863,550.383c0.034,0.022,0.069,0.044,0.104,0.065
		c-0.139-0.092-0.271-0.19-0.41-0.282C195.66,550.236,195.759,550.313,195.863,550.383z"/>
	<path fill-rule="evenodd" clip-rule="evenodd" fill="#C49A6C" d="M475.757,457.283c1.139-2.08,1.139-8.887,0-10.966v-4.112
		c-0.447-3.893,0.901-9.58-0.687-12.336c-0.106-0.806,0.119-1.944-0.684-2.054c-4.011-21.36-10.835-39.905-16.506-59.605
		l-4.465-17.156c-0.862-3.795-1.647-7.668-2.33-11.645c-0.697-1.746-1.293-3.597-2.069-5.264l-0.004-0.011l-0.006-0.013
		c-0.448-0.961-0.966-1.854-1.594-2.633l-4.401-7.278c3.222-18.104,7.466-34.355,11.5-51.274
		c4.064-17.049,11.423-31.592,14.461-49.432c-0.001,0.004-0.002,0.007-0.002,0.011c0.001-0.006,0.002-0.013,0.005-0.019
		c0,0.002-0.003,0.005-0.003,0.008c0.014-0.055,0.022-0.11,0.035-0.165c0.546-2.399,0.887-4.79,0.926-7.119
		c0.15-1.625,0.273-3.273,0.342-4.962c-0.516-3.826-2.397-6.284-4.798-8.223c-1.119-0.773-2.284-1.501-3.479-2.199
		c-9.48-5.532-21.227-8.798-33.527-11.507c-1.938,0.566-1.776-0.966-3.426-0.686c-1.691-1.508-4.874-1.523-6.854-2.741
		c-0.481-13.732,2.081-28.07,0-41.119v-0.685c1.88-24.18,0.076-52.737,5.481-77.439v-0.686c4.918-6.757,5.878-26.015,2.056-34.95
		c-0.293-1.305-1.476-1.723-1.369-3.427c-4.358-6.411-13.213-11.872-21.93-11.649c-10.487,0.375-19.898-0.165-32.896,0
		c-18.126,2.172-35.664-1.547-58.937-2.742c-22.768-1.168-47.035,3.482-66.474,2.742h-0.686c-1.036-0.836-5.902-1.346-6.853,0
		c-1.108,1.118-2.866-0.612-5.482,0c-0.739-1.135-6.114-1.135-6.853,0c-9.358-0.164-20.041,0.248-27.413,0
		c-6.644-2.295-12.752,1.862-16.447,4.797h-0.686c-0.281,0.861-0.883,1.4-2.056,1.371c-2.401,1.939-4.837,3.843-6.168,6.853
		c0.193,1.107-0.647,1.18-0.685,2.056c-3.805,8.918-2.932,28.264,2.056,34.95v0.686c2.7,12.376,3.1,27.054,4.797,40.433v0.686
		c0.156,4.441-0.649,7.503,0,9.594c1.141,1.362-0.062,0.871,0,2.741c0.452,5.26-0.906,12.329,0.686,16.448
		c1.136,11.978-0.134,15.659,0,29.468h-0.686c0.857,4.367,0.021,9.839,1.371,15.077c0.838,0.918-0.061,3.967-0.685,5.482
		c-2.42,0.779-4.273,2.124-7.539,2.056c-14.718,3.328-29.028,7.065-39.748,14.392c-2.402,1.939-4.283,4.397-4.798,8.223
		c-0.736,16.433,4.934,25.851,8.91,37.691c8.664,25.81,12.963,51.414,19.188,78.81l-2.056,2.057
		c-4.483,0.085-4.275,4.861-6.168,7.538c-0.688,3.684-1.458,7.283-2.278,10.835c0.001-0.006,0.002-0.008,0.002-0.012
		c-0.357,1.347-0.681,2.703-0.975,4.062h0c0,0,0,0,0,0.003c0,0,0,0,0-0.003c-6.339,25.765-15.467,48.74-20.735,75.576
		c-0.798,0.114-0.743,1.083-0.685,2.054c-1.587,2.756-0.238,8.443-0.685,12.336v4.112c-1.139,2.079-1.139,8.886,0,10.966
		c0.394,1.203-0.829,4.025,0.685,4.112c0.708,2.947,1.24,6.069,2.056,8.909v0.683c20.535,37.196,45.113,73.101,84.978,92.519
		c7.391,3.6,16.192,6.435,25.442,9.133l-0.021-0.007c0.01,0.003,0.022,0.007,0.033,0.011c-0.005,0-0.008-0.004-0.012-0.004
		c0.06,0.021,0.123,0.039,0.182,0.06c2.885,0.979,5.825,1.901,8.829,2.758c0.093,0.028,0.189,0.051,0.282,0.079
		c1.438,0.408,2.885,0.806,4.35,1.186c1.575,0.408,3.166,0.801,4.774,1.175c0.191,0.047,0.396,0.084,0.59,0.128
		c10.817,2.938,22.021,5.435,33.555,6.646c-0.013-0.002-0.026-0.005-0.039-0.008c0.014,0.003,0.029,0.006,0.042,0.008h-0.004
		c0.006,0.003,0.01,0.003,0.015,0.003c0.767,0.162,1.516,0.303,2.251,0.423c0.099,0.016,0.203,0.039,0.302,0.053
		c0.805,0.128,1.593,0.229,2.349,0.288c0.431,0.033,0.882,0.025,1.347-0.002c0.013-0.002,0.026,0,0.039-0.002
		c0.466-0.031,0.947-0.087,1.435-0.156c0.003,0,0.007-0.002,0.01-0.002c0,0,0,0,0,0c0.003,0,0.007,0,0.011,0
		c-0.003,0-0.007,0-0.01,0c2.921,0.148,5.859,0.214,8.819,0.162h0.686c28.355-3.396,58.407-11.037,82.237-21.244h0.685
		c40.357-19.494,66.293-53.407,86.349-93.204c-0.052-1.192,0.153-2.131,0.686-2.74c0.484-2.256,1.102-4.382,1.369-6.852
		C476.585,461.309,475.363,458.486,475.757,457.283z M466.631,217.615c-0.051-1.189-0.188-2.31-0.407-3.364l0.001-0.005
		l-0.013-0.046c-0.219-1.034-0.513-2.004-0.886-2.916c-0.001-0.005-0.003-0.009-0.004-0.014
		C466.082,213.127,466.535,215.23,466.631,217.615z M178.334,68.029c0.352,1.45,0.654,2.943,0.953,4.438
		C178.995,70.967,178.686,69.479,178.334,68.029z M130.977,219.443c0.008-2.65,0.206-5.49,0.111-8.038
		C131.183,213.953,130.985,216.792,130.977,219.443z M131.507,210.387L131.507,210.387c0.12-0.102,0.208-0.237,0.274-0.395
		C131.712,210.146,131.627,210.285,131.507,210.387z M131.96,209.467c-0.049,0.169-0.099,0.336-0.164,0.49
		C131.858,209.801,131.911,209.636,131.96,209.467L131.96,209.467z M132.44,208.65L132.44,208.65
		c0.471-0.754,1.007-1.459,1.598-2.122C133.447,207.191,132.911,207.896,132.44,208.65z M137.161,203.753
		c0.753-0.541,1.557-1.048,2.406-1.526C138.718,202.706,137.914,203.212,137.161,203.753z M121.866,438.471
		c0,0.007-0.001,0.015-0.001,0.022c0-0.008,0.001-0.016,0.001-0.025C121.866,438.471,121.866,438.471,121.866,438.471z
		 M148.108,501.533c2.952,4.3,6.041,8.509,9.282,12.604C154.148,510.044,151.06,505.833,148.108,501.533z M194.936,21.437
		c-0.001,0-0.002,0-0.003,0.001c-0.389,0.055-0.77,0.118-1.151,0.18C194.165,21.556,194.545,21.493,194.936,21.437z M180.709,80.932
		c0.12,0.498,0.224,1.012,0.366,1.488c-0.142-0.477-0.246-0.99-0.366-1.487V80.932z M179.855,75.494L179.855,75.494
		c0-0.001-0.001-0.002-0.001-0.004C179.854,75.491,179.855,75.492,179.855,75.494z M172.093,531.47
		c2.951,2.81,6.031,5.494,9.188,8.099C178.123,536.964,175.043,534.282,172.093,531.47z M196.007,550.478
		c-0.047-0.031-0.096-0.062-0.145-0.095c-1.292-0.847-2.537-1.744-3.798-2.623c1.159,0.808,2.308,1.626,3.492,2.406
		c-0.694-0.477-1.372-0.972-2.061-1.456c1.004,0.704,2.003,1.413,3.029,2.096c-0.185-0.12-0.374-0.237-0.559-0.357
		C195.98,550.458,195.994,550.47,196.007,550.478z M196.499,21.234c-0.002,0-0.004,0-0.006,0c0.001,0,0.002,0,0.004,0H196.499
		c0.004,0,0.007,0,0.011-0.001c0.337-0.036,0.667-0.075,1.019-0.103c0.375-0.04,0.771-0.062,1.152-0.098
		C197.952,21.099,197.205,21.15,196.499,21.234z M215.465,561.397L215.465,561.397c0.607,0.288,1.206,0.587,1.817,0.869
		C216.67,561.984,216.072,561.686,215.465,561.397z M221.418,20.755c-4.323-0.147-8.609-0.249-12.73-0.209
		C212.809,20.506,217.094,20.607,221.418,20.755c4.324,0.148,8.688,0.341,12.968,0.489
		C230.106,21.097,225.743,20.903,221.418,20.755z M338.19,21.189c0.302-0.033,0.597-0.067,0.934-0.09c0,0,0.001,0,0.002,0
		C338.789,21.122,338.492,21.156,338.19,21.189z M371.802,20.511c11.162-0.527,24.507-1.494,34.765,0.903
		C396.308,19.017,382.963,19.986,371.802,20.511z M401.654,21.342c1.647,0.018,3.288,0.04,4.921,0.074
		c0.002,0,0.005,0.001,0.009,0.002C404.949,21.384,403.305,21.36,401.654,21.342z M416.22,539.286
		c-0.082,0.066-0.164,0.127-0.246,0.194c0.083-0.067,0.167-0.131,0.249-0.2L416.22,539.286z M407.571,21.657
		c2.938,1.982,6.155,3.218,8.856,5.128C413.727,24.877,410.508,23.639,407.571,21.657z M432.35,523.052
		c1.956-2.223,3.889-4.504,5.812-6.841C436.238,518.548,434.307,520.829,432.35,523.052z M460.355,492.845
		c-0.009,0.014-0.018,0.025-0.025,0.035c0.014-0.018,0.025-0.037,0.04-0.059C460.364,492.829,460.36,492.837,460.355,492.845z
		 M465.364,484.623c0.001-0.002,0.001-0.004,0.002-0.004l0.019-0.036C465.377,484.596,465.372,484.611,465.364,484.623z"/>
</g>
<path opacity="0.87" fill-rule="evenodd" clip-rule="evenodd" fill="#FFEFC1" d="M407.911,376.665
	c-4.369,4.096-12.105,8.134-19.188,12.167c-17.606,10.022-40.492,25.855-65.104,27.712c-11.649,0.881-27.77-4.163-39.747,0
	c-30.751,0.654-53.418-13.997-73.328-26.362c-6.616-4.108-14.112-6.824-19.188-10.813c-9.055-7.119-13.771-19.042-25.356-22.981
	c-1.357,4.629,3.902,8.221,6.853,10.814c-2.21,2.739-1.035,6.945,0,10.14c3.477,11.217,6.144,23.229,8.224,35.824
	c2.01,4.552,2.562,10.539,4.797,14.869v0.678c-0.102,5.508-0.212,11.024,1.371,14.868c1.937,0.559,1.775-0.951,3.426-0.675
	c5.425,17.405,16.22,29.514,21.93,46.64c8.115-0.574,11.705,7.963,17.133,12.168c5.642,3.221,9.69,8.014,15.077,11.49
	c2.613,3.054,6.326,5.024,9.594,7.435c0.988,0.264,1.815,0.685,2.58,1.166c0.241,0.16,0.479,0.324,0.721,0.48
	c1.165,0.822,2.233,1.739,3.552,2.409c2.735,2.033,5.885,3.657,8.224,6.083c3.832,1.404,7.865,2.606,11.65,4.057
	c8.098,5.675,25.734,6.633,33.58,0c2.819-0.376,4.433-1.939,7.539-2.03c6.795-2.758,11.293-7.786,17.817-10.813
	c14.656-9.651,28.244-20.357,40.432-32.444c0.797,0.568,1.839,0.893,3.429,0.677c6.008-16.605,16.587-28.701,21.929-45.965
	c0.877,0.926,3.235,0.926,4.112,0c1.368-4.508,1.6-10.138,1.369-16.223v-0.676c1.9-4.208,3.789-8.431,4.112-14.193
	c1.818-11.953,4.62-22.933,7.539-33.797c0.532-4.222,3.237-7.781,0.685-11.491c2.441-3.676,6.971-5.292,7.539-10.813
	C420.753,358.52,415.631,369.428,407.911,376.665z M224.994,405.697c-0.001-0.003-0.002-0.003-0.005-0.003
	c0.033,0.016,0.066,0.031,0.098,0.047C225.057,405.726,225.025,405.712,224.994,405.697z M245.536,508.385
	c-0.001-0.003-0.003-0.003-0.005-0.003c0.021,0.011,0.044,0.021,0.064,0.031C245.576,508.402,245.555,508.396,245.536,508.385z
	 M249.087,516.152l-0.051-0.043c0.018,0.015,0.036,0.029,0.055,0.045C249.089,516.152,249.089,516.152,249.087,516.152z
	 M252.035,518.344c-0.002-0.002-0.004-0.002-0.007-0.004c0.006,0.004,0.012,0.01,0.019,0.012L252.035,518.344z M350.297,508.936
	h-0.003c0.003-0.003,0.004-0.003,0.005-0.005C350.298,508.933,350.298,508.933,350.297,508.936z"/>
<g>
	<path fill="#C3A89D" d="M375.428,18.139c0.861,4.422-0.316,10.93-0.232,14.669c0.397,17.581,0.794,35.163,1.192,52.744
		c1.03,45.704-1.106,92.697,5.218,138.094c0.574,4.122,1.147,8.222,1.774,12.298c-0.103-1.429-0.186-2.864-0.223-4.314
		c-0.002-0.021-0.005-0.04-0.008-0.062l0.006-0.006c0,0.023,0.002,0.045,0.002,0.067c2.655,22.643,11.117,43.43,18.356,64.701
		c3.955,10.927,7.5,22.119,9.788,32.912c4.126,19.465,7.165,152.079-1.931,216.53c1.521-1.087,3.019-2.197,4.49-3.332
		c3.287-18.857,5.171-37.999,6.472-57.014c-0.044,3.551-0.143,7.106-0.278,10.664c2.604-32.007,4.072-64.397,3.246-96.259
		c-1.086-41.83-7.138-81.049-15.49-121.827c-17.447-85.194-12.096-173.139-12.908-259.71
		C388.729,18.33,382.575,18.161,375.428,18.139z"/>
	<path fill="#C3A89D" d="M422.844,68.257v-0.677c4.918-6.673,5.88-25.695,2.059-34.521c-0.294-1.29-1.477-1.7-1.372-3.385
		c-4.357-6.333-13.212-11.726-21.929-11.506c-0.588,0.021-1.174,0.038-1.757,0.053c2.573,7.31,0.395,22.71,0.555,28.284
		c0.305,11.388,0.634,22.792,1.186,34.171c2.152,44.378,4.9,88.695,8.751,132.964c3.255,37.424,10.765,74.459,13.812,111.927
		c3.78,46.448,5.823,92.496,3.576,139.081c-1.078,22.302-3.174,44.429-5.857,66.589c-0.136,1.11-0.303,2.866-0.516,5.045
		c6.892-6.013,13.237-12.564,19.124-19.568c0.218-2.561,0.434-5.113,0.664-7.656c1.184-13.083,1.67-26.312,1.723-39.535
		c-0.112-10.412-0.36-20.739-0.57-30.885c0.395,10.239,0.611,20.56,0.57,30.885c0.067,6.2,0.085,12.427,0.022,18.668
		c2.905-68.269-2.877-137.274-4.515-205.207c-0.733-30.443-1.053-60.876-1.173-91.305c-3.127-0.81-6.318-1.555-9.555-2.258
		c-1.937,0.56-1.773-0.954-3.426-0.676c-1.689-1.49-4.874-1.505-6.852-2.709c-0.482-13.562,2.079-27.724,0-40.613v-0.677
		C419.243,120.863,417.44,92.656,422.844,68.257z M421.826,299.686c2.85,22.549,5.163,45.157,5.826,67.959
		C426.359,344.853,424.257,322.239,421.826,299.686c-5.485-43.388-12.959-86.554-14.512-130.455
		c-0.002-0.008-0.002-0.017-0.004-0.025h0.002c0,0.008,0.002,0.017,0.002,0.025C411.209,212.987,417.142,256.216,421.826,299.686z"
		/>
	<path fill="#C3A89D" d="M281.642,580.109c0.931,0.033,1.855,0.041,2.772,0.004c2.803-0.112,5.427-0.227,7.921-0.337
		c-0.079-0.245-0.135-0.514-0.135-0.823c0-4.978,0.019-9.946,0.041-14.921c0.186-44.311,1.396-88.67,4.105-132.896
		c2.605-42.63,2.027-93.119,18.526-133.101c0.729-1.767,1.457-3.548,2.184-5.331c6.424-18.669,14.066-37.031,20.035-55.78
		c3.578-13.695,6.584-27.552,9.195-41.401c0.001-0.01,0.003-0.021,0.004-0.031l0.001,0.006c-0.001,0.008-0.004,0.017-0.005,0.025
		c-0.348,3.38-0.818,6.732-1.376,10.064c0.822-4.319,1.528-8.64,2.115-12.962c-0.636-58.319-1.273-116.639-1.909-174.955
		c-3.854,0.032-7.521-0.123-10.651-0.806c0.413,4.47-0.775,12.299-0.775,14.602v45.226c0,44.625,2.4,88.853-5.004,132.938
		c-3.434,20.434-6.729,41.451-13.384,61.145c-6.392,18.917-14.481,36.39-18.849,56.067c-8.594,38.719-6.522,80.869-7.915,120.273
		l-3.32,93.972C285.019,547.074,288.171,574.688,281.642,580.109z"/>
	<path fill="#C3A89D" d="M473.982,425.221c0.339,2.502,0.682,5.002,1.028,7.505c0.085-2.244,0.031-4.348-0.767-5.721
		C474.163,426.407,474.27,425.618,473.982,425.221z"/>
	<path fill="#C3A89D" d="M403.789,542.975c-0.15,0.822-0.298,1.64-0.452,2.46C403.489,544.614,403.643,543.797,403.789,542.975z"/>
	<path fill="#C3A89D" d="M402.365,550.507c0.285-1.428,0.552-2.856,0.821-4.285c-0.273,1.433-0.553,2.865-0.84,4.299
		C402.354,550.515,402.358,550.51,402.365,550.507z"/>
	<path fill="#C3A89D" d="M338.696,231.736c-0.52,1.733-1.056,3.461-1.605,5.188c-0.224,0.856-0.439,1.715-0.667,2.57
		C337.208,236.915,337.964,234.329,338.696,231.736z"/>
	<path fill="#C3A89D" d="M464.648,202.958c-5.796-3.955-12.66-6.858-20.1-9.189c0.232,37.14,0.58,74.276,1.179,111.406
		c2.505-11.25,5.276-22.067,7.957-33.174c2.477-10.264,6.182-19.609,9.385-29.331c1.133-12.193,2.701-24.347,4.617-36.447
		C466.861,204.95,465.818,203.892,464.648,202.958z"/>
	<path fill="#C3A89D" d="M464.928,236.71c0.143-0.486,0.294-0.967,0.432-1.457c1.171-8.427,2.511-16.83,3.889-25.224
		c-0.161-0.735-0.379-1.413-0.644-2.044C467.233,217.542,465.993,227.118,464.928,236.71z"/>
	<path fill="#C3A89D" d="M463.584,405.054c-0.576-7.52-1.072-15.02-1.497-22.504c-4.521-14.394-9.026-28.801-11.829-44.894
		c-1.195-2.959-2.1-6.204-4.137-8.333c0.787,45.196,0.884,90.354,0.24,135.558c-0.22,15.332-0.656,30.66-1.155,45.984
		c9.428-12.112,17.648-25.414,25.054-39.524C468.005,449.291,465.29,427.307,463.584,405.054z"/>
	<path fill="#C3A89D" d="M145.935,251.699c9.199,15.878,14.164,37.454,17.469,50.441c3.184,12.508,5.827,25.222,8.068,38.013
		c-1.838-13.486-4.099-28.893-7.717-43.918c-3.995-15.448-9.482-30.386-17.316-43.79
		C146.274,252.192,146.104,251.947,145.935,251.699z"/>
	<path fill="#C3A89D" d="M158.329,237.825c7.565,16.44,11.928,32.591,16.715,50.097c8.475,30.998,12.373,63.219,16.043,95.077
		c6.609,57.356,9.956,115.625,9.782,173.496c2.327,1.13,4.705,2.228,7.144,3.281c-0.319-10.632,0.564-21.89,0.405-25.608
		c-3.985-93.733-2.713-185.26-34.985-274.623c-8.02-22.209-15.193-44.065-20.842-66.421c-4.91,1.458-9.608,3.125-13.954,5.14
		c1.599,3.663,3.502,7.143,5.867,10.321c12.977,17.43,20.722,38.027,25.653,59.036c-5.288-20.35-14.413-38.396-25.546-56.144
		c-2.635-4.2-4.757-8.526-6.521-12.949c-0.168,0.08-0.334,0.16-0.501,0.24c1.478,4.433,3.109,8.812,4.896,13.134
		C148.539,219.508,153.484,227.295,158.329,237.825z"/>
	<path fill="#C3A89D" d="M201.26,233.8c0.148,0.512,0.288,1.021,0.437,1.533c1.259,4.329,3.303,8.462,5.587,12.538
		C205.214,243.202,203.183,238.518,201.26,233.8z"/>
	<path fill="#C3A89D" d="M155.616,193.141c9.38,40.693,32.867,75.995,41.085,117.107c16.696,83.513,23.875,168.503,21.639,253.646
		c6.272,2.319,12.817,4.438,19.569,6.381c-1.258-10.117,0.976-24.33,0.881-29.92c-0.559-32.909-1.116-65.817-1.675-98.729
		c-0.642-37.74,1.344-75.421-8.659-112.141c-11.279-41.394-29.661-80.159-40.729-121.617c-3.728-13.959-7.17-28.144-10.224-42.448
		c0.002,0.331,0.001,0.642,0.003,0.986h-0.685c0.857,4.312,0.021,9.716,1.371,14.891c0.837,0.907-0.061,3.917-0.686,5.415
		c-2.419,0.769-4.272,2.098-7.539,2.031c-4.932,1.101-9.815,2.252-14.536,3.562C155.494,192.585,155.551,192.864,155.616,193.141z"
		/>
	<path fill="#C3A89D" d="M182.987,546.14c0.088,0.063,0.181,0.118,0.27,0.183c-0.982-19.946-1.963-39.893-2.945-59.838
		c-1.429-29.025-2.442-58.088-5.048-87.039c-2.771-30.788-8.253-61.108-16.356-90.932c-3.853-14.179-9.625-27.213-17.048-39.851
		c-0.753-1.281-1.566-2.467-2.408-3.615c3.729,13.477,6.632,27.02,9.621,40.918c7.6,12.389,11.793,27.222,14.165,42.119
		c6.214,28.639,6.597,60.354,7.652,83.199c1.624,35.18,2.715,70.505,1.203,105.718C175.463,540.3,179.052,543.391,182.987,546.14z"
		/>
	<path fill="#C3A89D" d="M164.175,528.512c0.004-7.025-0.175-13.705-0.12-19.46c-0.009,5.094,0.205,11.97,0.15,19.495
		c0.126,0.147,0.25,0.294,0.377,0.44c0.161-9.09,0.025-17.519,0.313-23.709c1.166-25.016,2.019-49.905,0.539-74.911
		c-1.575-26.598-2.859-54.681-10.325-80.424c-1.641-5.659-3.196-11.387-5.021-17.016l-0.682,1.345
		c0.166-0.417,0.411-0.89,0.672-1.375c-0.415-1.278-0.839-2.551-1.286-3.813c-1.843,1.51-2.1,4.592-3.498,6.543
		c-0.878,4.65-1.89,9.171-2.979,13.61c9.348,29.075,8.768,64.332,9.533,91.82c-0.124-1.586-0.255-3.168-0.383-4.749
		c0.078,4.409,0.149,8.668,0.25,12.707c0.522,20.885,2.108,43.365,0.989,65.373C156.475,519.138,160.22,523.922,164.175,528.512z"/>
	<path fill="#C3A89D" d="M133.363,488.38c3.299,5.188,6.934,10.233,10.738,15.173c0.147-1.756,0.29-3.5,0.428-5.225
		c-0.117,1.747-0.258,3.494-0.414,5.242c0.006,0.008,0.012,0.016,0.017,0.023c0.932-7.104,1.527-14.218,1.624-21.282
		c0.502-36.632-3.583-70.529-11.393-105.035c-2.349,7.621-4.727,15.213-6.945,22.963C134.405,429.084,136.46,459.002,133.363,488.38
		z"/>
	<path fill="#C3A89D" d="M149.598,308.403c0.23,1.071,0.462,2.143,0.695,3.22c1.82,3.266,3.471,6.695,4.961,10.265
		C153.646,317.166,151.781,312.611,149.598,308.403z"/>
	<path fill="#C3A89D" d="M146.439,252.445c8.08,12.279,13.468,27.808,17.316,43.79c4.38,16.937,6.981,34.477,8.966,51.256
		c2.239,13.785,4.022,27.641,5.43,41.432c5.432,53.206,7.172,106.612,9.103,160.042c1.934,1.227,3.934,2.406,5.985,3.554
		c0.235-5.217,0.564-9.668,0.515-11.737c-0.483-19.892-0.964-39.784-1.447-59.675c-0.765-31.577-3.318-63.718-7.166-95.09
		c-4.365-35.586-8.118-71.578-18.287-106.112c-4.723-16.034-8.995-33.583-18.522-47.623c-3.458-5.092-8.544-8.748-12.966-12.509
		c0.046,0.082,0.088,0.164,0.134,0.245v0.007c-5.369,0.599-8.039-1.948-9.267-5.918v9.684c0.242,1.352,0.526,2.66,0.847,3.931
		C134.791,235.045,141.149,243.395,146.439,252.445z"/>
	<path fill="#C3A89D" d="M126.232,475.748c0.097,0.196,0.191,0.396,0.288,0.594c0.191-24.123,0.3-48.249-0.188-72.235
		c-0.033,0.124-0.067,0.245-0.101,0.368V475.748z"/>
	<path fill="#C3A89D" d="M364.379,485.182c-1.575,5.633-3.398,11.167-5.24,16.688c1.876-5.359,3.711-10.762,5.17-16.404
		C364.333,485.372,364.355,485.275,364.379,485.182z"/>
	<path fill="#C3A89D" d="M203.849,145.626c-0.3-1.162-0.596-2.323-0.886-3.479c-0.218-0.728-0.452-1.449-0.662-2.179
		C202.794,141.844,203.31,143.731,203.849,145.626z"/>
	<path fill="#C3A89D" d="M370.227,553.755c-0.679,2.52-1.346,5.02-1.969,7.495c0.716-9.141,2.825-18.006,5.03-26.871
		c5.086-30.952,10.712-61.675,12.025-93.589c2.138-51.902-9.121-100.246-39.422-142.515c-20.38,42.005-26.415,91.948-28.688,137.946
		c-1.192,24.1-2.476,48.187-3.328,72.302c-0.788,22.246-3.875,47.851,1.132,69.9c3.847-0.317,7.397-0.676,10.883-1.096
		c-0.642-37.071-4.11-73.389-2.54-110.664c1.418-33.712,1.457-70.606,10.66-103.98c2.321-11.132,5.791-21.95,11.88-30.621
		l0.006,0.002c0.345,0.556,0.67,1.119,1.006,1.681c23.913,37.132,27.501,83.745,27.388,126.556
		c-0.094,36.632-14.44,72.763-14.306,109.291c3.338-1.524,6.045-2.862,8.576-4.06C369.087,561.596,369.642,557.671,370.227,553.755z
		"/>
	<path fill="#C3A89D" d="M351.257,281.454c7.232,7.342,13.208,15.519,18.105,24.308C364.52,295.148,358.473,285.412,351.257,281.454
		z"/>
	<path fill="#C3A89D" d="M396.824,484.045c3.126-32.621,3.065-65.981,1.149-98.67c-1.911-32.559-8.39-58.872-24.378-87.788
		c-13.961-25.248-23.857-49.006-27.7-77.966c-2.732,38.499-23.165,74.01-29.899,111.927c-7.707,43.396-11.498,87.9-13.814,131.875
		c-1.214,23.054-2.48,46.087-3.278,69.154c-0.521,15.159-1.045,30.318-1.567,45.479c-0.021,0.586-0.161,1.079-0.37,1.503
		c5.016-0.246,9.435-0.501,13.472-0.785c-1.675-50.975-4.259-102.471-0.076-153.357c3.264-39.709,4.871-91.354,22.68-130.124
		c0.466-1.165,0.94-2.328,1.455-3.473c2.966-6.595,4.85-12.63,8.483-14.112c0.56-0.809,1.112-1.625,1.693-2.416
		c1.074,0.919,2.112,1.865,3.14,2.818c1.016,0.46,2.135,1.139,3.376,2.075c12.248,9.202,20.19,24.992,25.271,40.481
		c12.693,31.277,14.855,67.733,14.265,100.169c-0.483,26.653-1.644,53.506-4.724,80.002c-1.628,14.013-3.661,27.958-8.197,41.352
		c-1.333,3.938-1.737,12.404-2.642,20.473c1.991-0.763,4.119-1.469,6.597-2.14C386.423,535.014,394.298,510.421,396.824,484.045z"/>
	<path fill="#C3A89D" d="M275.43,134.24c-0.306,1.18-0.606,2.358-0.902,3.534c-0.188,0.984-0.382,1.983-0.58,2.993
		C274.458,138.599,274.954,136.424,275.43,134.24z"/>
	<path fill="#C3A89D" d="M297.075,14.078c-9.006,81.119-16.027,173.141-54.916,246.681
		c-45.076-72.206-62.894-153.591-62.429-237.983c-0.055,0.043-0.114,0.088-0.168,0.13h-0.686c-0.28,0.851-0.883,1.385-2.056,1.355
		c-2.402,1.914-4.837,3.795-6.168,6.768c0.193,1.093-0.648,1.165-0.686,2.031c-0.761,1.763-1.332,3.943-1.724,6.348
		c0.636,8.359,1.318,16.713,2.066,25.061c0.503,1.21,1.073,2.267,1.713,3.113v0.677c2.7,12.225,3.1,26.721,4.797,39.937v0.677
		c0.155,4.387-0.649,7.411,0,9.476c1.141,1.345-0.062,0.861,0,2.708c0.042,0.478,0.054,0.983,0.068,1.487
		c3.012,21.2,6.79,42.294,11.704,63.224c1.791,7.629,3.689,15.18,5.667,22.707c4.635,15.19,10.263,29.979,16.092,44.693
		c2.652,4.488,5.318,8.982,7.267,13.671c6.428,15.464,11.463,31.155,15.683,47.099c3.521,10.942,6.58,22.078,8.857,33.541
		c3.618-30.546,9.026-61.086,18.785-90.315c7.261-21.748,15.443-42.208,21.793-63.933c1.774-6.358,3.458-12.746,4.98-19.187
		c-1.459,6.545-3.148,12.916-4.98,19.187c-7.737,27.719-17.355,54.812-24.642,82.543c8.426-27.352,18.354-54.282,25.394-82.695
		c7.221-29.148,13.178-58.783,17.002-88.564c2.201-17.15,3.853-34.149,5.209-51.391c0.658-8.349-2.513-39.295,4.802-38.805
		c-2.086,42.972-4.268,86.361-10.671,128.959c-3.293,21.898-5.993,44.245-11.932,65.63c-5.847,21.063-14.955,40.648-20.737,61.728
		c-25.402,92.604-18.161,190.491-18.746,285.384c-0.036,5.696-0.07,11.391-0.105,17.086c2.872,0.738,5.766,1.456,8.689,2.144
		c1.134,0.266,2.263,0.543,3.388,0.823c0.092-41.501-0.668-82.997,0.042-124.5c0.765-44.705-1.023-91.946,8.388-135.838
		c1.052-4.908,2.3-9.761,3.69-14.576c-0.793,2.113-1.529,4.239-2.212,6.374c-1.431,5.458-2.694,10.968-3.729,16.559
		c0.659-5.624,1.997-11.132,3.729-16.559c9.812-37.389,27.589-72.09,34.498-110.827c0.003-0.023,0.007-0.047,0.01-0.07l0.005-0.002
		c-0.004,0.024-0.009,0.048-0.015,0.072c-0.557,4.958-1.243,9.908-2.053,14.842c0.953-4.072,1.791-8.179,2.468-12.335
		c6.871-42.174,10.086-85.52,13.54-128.078c1.535-18.914,2.991-37.865,1.513-56.812h3.823
		c-2.384,84.467-7.764,167.794-28.678,249.831c-4.545,17.826-14.216,36.317-16.515,54.088c-2.832,21.879-4.775,43.798-6.571,65.783
		c-3.586,43.917-4.15,88.113-3.902,132.147c0.117,20.754,0.837,41.483,1.489,62.228c2.562,0.575,5.089,1.06,7.576,1.371
		c1.404-84.212-6.468-174.155,13.445-256.678c4.502-18.659,14.801-35.844,19.199-53.79c0.032-0.128,0.062-0.257,0.094-0.388
		c-0.294,0.671-0.58,1.351-0.894,2.008c-6.335,13.29-13.479,27.881-16.869,42.591c-0.527,2.778-1.014,5.508-1.478,8.146
		c0.34-2.714,0.852-5.431,1.478-8.146c2.558-13.471,6.131-28.083,13.316-39.146c2.533-3.9,4.563-8.344,6.274-13.084
		c4.251-17.755,8.203-35.571,11.686-53.497c8.837-45.465,5.573-92.67,5.976-138.743c0.117-13.341,0.234-26.685,0.35-40.026
		c0.002-0.325-0.248-8.951,0.78-13.318c-1.131-0.511-2.134-1.148-2.984-1.936c-11.745,0.025-22.549,0.051-31.941,0.076
		C296.281,13.89,296.663,13.963,297.075,14.078z"/>
	<path fill="#C3A89D" d="M349.56,573.587c-0.136-3.612,0.595-8.294,0.472-13.551c-0.181-7.765-0.874-15.636-0.168-23.385
		c-0.112,0.801-0.229,1.603-0.319,2.409c0.468-20.684,9.558-38.599,15.817-57.91c9.327-40.321,2.408-78.042-18.26-113.904
		c-16.034,31.666-20.495,72.952-17.568,107.893c0.44,5.267,1.136,10.557,1.816,15.856c2.778,8.253,6.304,19.412,2.016,27.298
		c-0.047,1.615-0.127,3.228-0.271,4.841c-1.622,18.158-2.433,35.219-2.164,53.536c2.471-0.345,4.971-0.728,7.58-1.152
		c-0.257-15.53-0.953-32.947,3.727-47.351c-0.043,6.679,2.027,34.366-0.267,46.77C344.365,574.522,346.874,574.076,349.56,573.587z
		 M343.941,410.043c1.015-3.231,2.378-6.309,4.392-8.924l0.002,0.004c0,0-0.001-0.002-0.001-0.004l0.004,0.008
		c6.415,11.894,10.325,26.152,9.353,39.687c-0.189-10.084-2.031-20.315-6.109-29.582c8.595,30.271,7.152,61.473-8.127,90.323
		C338.003,473,332.326,438.256,343.941,410.043z"/>
	<path fill="#C3A89D" d="M251.514,77.335c2.633-8.506,4.773-17.135,5.695-25.991c-1.982,10.602-4.673,21.078-7.926,31.398
		C250.212,80.809,251.005,78.98,251.514,77.335z"/>
	<path fill="#C3A89D" d="M349.536,17.575c1.867,5.909-0.07,17.548-0.041,21.705c0.166,21.987,0.33,43.974,0.498,65.96
		c0.233,31.345,0.47,62.688,0.704,94.033c1.513,10.489,3.349,21.002,5.632,31.4c-0.995-5.792-1.797-11.591-2.459-17.321
		c-0.007-0.035-0.013-0.072-0.019-0.106h0.006c0.004,0.034,0.009,0.07,0.013,0.106c2.238,12.113,4.377,25.509,7.818,38.439
		c1.671,5.719,3.517,11.37,5.56,16.927c0.979,2.431,2.02,4.825,3.165,7.143c2.171,4.208,4.604,8.28,7.365,12.165
		c-2.812-3.774-5.238-7.861-7.365-12.165c-0.721-1.395-1.407-2.811-2.069-4.237c0.21,0.549,0.407,1.102,0.621,1.648
		c5.292,13.52,15.065,25.253,20.619,38.876c5.832,14.309,9.021,28.995,11.227,44.207l-0.011-0.024
		c2.74,39.606,3.572,78.834-0.396,118.44c-1.969,19.597-5.004,39.117-9.029,58.403c-1.508,7.238-4.606,15.036-5.275,22.362
		c-0.095,1.023-0.113,2.434-0.117,4.069c5.594-2.674,10.901-5.632,15.963-8.833c3.379-16.819,4.72-34.702,6.891-50.046
		c6.958-77.655,8.339-161.152-25.024-232.404c-17.366-37.089-13.433-85.322-14.631-125.538
		c-1.236-41.594-1.547-83.219-1.564-124.831C362.398,17.029,355.894,17.375,349.536,17.575z"/>
	<path fill="#C3A89D" d="M257.27,51.033c-1.512,19.396-8.899,38.402-16.739,56.055c-9.073-15.094-15.671-31.038-19.885-47.632
		c-3.814-13.409-6.001-27.212-5.722-41.312c-5.098,0.035-10.183,0.125-14.593,0.102c4.248,13.558,9.283,58.082,11.696,66.205
		c1.218,4.101,2.47,8.23,3.775,12.363c6.622,19.496,14.811,38.564,25.507,56.2c0.012,0.017,0.023,0.034,0.036,0.052
		c21.347-43.049,34.375-90.595,32.707-138.987c1.3,0.08,2.602,0.162,3.902,0.243c-2.582,29.235-5.763,57.962-11.292,86.809
		c-3.816,19.924-9.679,47.969-25.317,62.425c-29.146-43.558-39.634-93.778-42.959-145.332c-0.82-0.013-1.62-0.029-2.376-0.054
		c-0.842-0.287-1.674-0.47-2.493-0.568c4.585,15.49,10.653,77.113,12.836,87.086c4.146,18.967,10.936,43.895,23.865,61.129
		c-0.065-0.122-0.129-0.241-0.196-0.364c-0.161-0.294-0.312-0.594-0.471-0.89c-7.925-11.887-13.194-27.351-17.739-38.915
		c5.437,13.213,10.95,26.322,17.739,38.915c1.159,1.74,2.376,3.402,3.656,4.965c2.501,2.889,5.202,5.502,8.141,7.743
		c9.127-12.461,16.101-25.51,21.426-39.234c3.777-10.396,6.7-21.128,9.323-31.716c0.868-4.084,1.647-8.219,2.33-12.418
		c2.473-15.217,4.336-30.407,5.46-45.783c0.518-7.107-1.316-33.334,4.578-33.798c-3.626,54.622-4.351,132.689-43.933,175.849
		c-37.168-48.652-45.835-112.864-48.654-172.643c-2.503,0.038-4.858,0.811-6.953,1.869c3.426,11.022,2.256,35.789,3.239,43.104
		c2.612,19.548,5.719,38.528,9.639,57.773c1.607,7.02,3.283,14.385,5.161,21.875c8.157,27.174,22.059,52.193,38.626,75.456
		c1.652-1.445,3.213-3.036,4.708-4.727c10.93-18.543,18.504-38.104,24.155-58.448c1.345-5.497,2.664-11.052,4.076-16.654
		c0.525-2.738,1.018-5.375,1.487-7.881c2.861-15.254,5.711-30.651,8.165-46.124c1.171-8.334,2.24-16.685,3.185-25.06
		c1.052-9.325,1.987-18.659,2.714-28.014c0.302-3.907-0.67-10.647,0.985-14.338c0.021-0.76,0.056-1.519,0.073-2.279
		c0.487,0.081,0.975,0.162,1.462,0.243c-0.002,0.029-0.004,0.059-0.006,0.088c0.405-0.274,0.88-0.463,1.422-0.567
		c-12.231,0.031-21.906,0.058-27.912,0.071c-1.807,1.098-3.219,2.482-5.157,3.223C260.621,28.546,259.345,39.859,257.27,51.033z"/>
	<path fill="#C3A89D" d="M332.08,496.847c0.816,6.81,1.446,13.629,1.321,20.426C334.062,510.582,333.188,503.624,332.08,496.847z"/>
</g>
<path fill-rule="evenodd" clip-rule="evenodd" d="M296.207,12.585c-2.257,2.538-7.163,2.658-10.965,3.426
	c-18.698,3.778-40.996,3.427-65.789,3.427c-19.485,0-38.938-2.055-44.545,11.65c-1.912,4.671-1.691,14.823-0.686,22.615
	c0.584,4.523,3.753,9.081,4.797,13.706c1.954,8.656,2.089,19.266,2.741,29.468c1.217,19.014,1.371,40.464,1.371,61.678
	c0,10.364,2,20.461-0.685,29.468c-7.529,3.849-18.139,5.305-28.098,8.224c-14.198,4.16-27.043,7.097-23.3,26.727
	c1.611,8.452,5.75,17.871,8.909,27.412c2.949,8.91,5.274,18.375,7.538,28.097c4.679,20.098,12.073,39.467,12.336,57.566
	c-6.732-6.058-5.812-17.827-8.224-28.098c-2.212-9.419-5.353-18.836-7.539-28.783c-2.144-9.758-4.76-19.787-7.539-28.783
	c-2.955-9.569-8.064-18.367-9.594-26.728c-5.875-32.09,30.476-29.947,52.083-38.376c-1.511-34.758,2.927-82.123-4.111-115.817
	c-1.013-4.849-4.128-9.446-4.797-13.706c-1.466-9.339-1.163-18.802,0.686-24.671c2.652-8.423,11.428-12.301,18.503-15.763
	c16.971,0,34.45,0,51.398,0c17.22,0,33.582-1.85,48.657-2.741C290.941,12.491,293.467,12.171,296.207,12.585z"/>
<path fill-rule="evenodd" clip-rule="evenodd" d="M417.506,184.597c7.847,4.651,18.98,5.202,28.782,8.223
	c14.625,4.509,27.022,10.508,23.301,30.839c-1.527,8.348-6.617,17.071-9.593,26.728c-2.781,9.021-5.381,18.956-7.541,28.783
	c-3.346,15.231-6.611,28.337-10.279,44.544c-0.936,4.146-1.081,10.151-5.481,12.336c0.326-18.069,7.585-37.557,12.335-57.566
	c3.483-14.673,6.822-27.967,11.65-41.803c2.465-7.064,7.984-16.778,4.798-26.727c-4.777-14.917-36.752-14.197-51.397-21.93
	c-2.734-5.975-0.967-12.124-0.687-18.503c1.104-25.083-1.118-53.2,1.372-78.811c0.772-7.953,1.226-16.59,2.74-23.3
	c0.925-4.098,4.199-8.864,4.797-13.021c0.877-6.104,0.981-17.864-0.686-22.615c-4.924-14.037-23.466-12.335-44.545-12.335
	c-27.025,0-59.72,1.276-76.755-6.853c14.525-0.263,33.879,2.741,53.455,2.741c19.101,0,38.56-2.294,52.083,0
	c7.618,1.292,17.81,8.968,19.873,14.392c1.871,4.915,1.729,19.397,0.686,26.042c-0.679,4.332-3.859,8.184-4.797,12.335
	c-3.098,13.724-3.074,31.577-3.426,49.342C417.736,140.439,416.807,163.785,417.506,184.597z"/>
<path fill-rule="evenodd" clip-rule="evenodd" d="M288.668,99.619c0.583-0.126,0.646,0.267,0.685,0.685
	c3.323,16.7,0.101,36.334-1.371,56.88c-1.463,20.43-1.125,42.549-2.056,63.734c-0.974,22.143,1.472,44.445-2.056,63.049
	c-0.903,4.762-3.314,10.118-4.797,15.076c-3.816,12.756-6.645,19.32-15.077,28.097c-5.137,5.349-10.49,10.128-18.503,10.964
	c-13.303,1.39-32.564-2.299-41.118-8.906c-1.704-11.89,1.798-22.675,4.798-32.209c3.097-9.848,6.415-19.17,10.279-28.1
	c11.8-0.378,13.704,9.141,17.132,17.133c-5.555-3.354-7.44-10.378-14.391-12.335c-4.438,7.42-6.177,16.528-8.909,25.356
	c-2.648,8.558-6.549,17.989-4.797,28.097c4.118,2.891,10.899,5.325,17.818,6.17c6.963,0.849,16.154,1.835,22.615,0
	c5.934-1.688,18.245-14.079,21.93-21.245c1.933-3.76,3.282-9.683,4.797-15.076c1.349-4.803,3.279-10.1,4.112-15.079
	c1.878-11.221,0.951-24.314,1.371-37.692c0.377-12.046,1.474-24.506,2.056-37.006c0.609-13.087-0.835-26.058-0.686-38.377
	c0.091-7.542,2.164-14.686,2.741-21.93C286.316,133.428,285.423,113.575,288.668,99.619z"/>
<path fill-rule="evenodd" clip-rule="evenodd" d="M307.172,100.989c3.38,6.096,3.318,22.966,4.111,32.895
	c0.496,6.209-0.053,12.966,0.686,19.188c0.668,5.643,2.016,10.814,2.056,15.763c0.105,12.857-1.323,26.326-0.686,39.748
	c0.587,12.301,1.727,24.434,2.056,36.321c0.954,34.263,2.482,61.962,19.874,79.496c3.567,3.595,8.513,7.89,11.65,8.91
	c6.204,2.011,16.218,0.901,23.3,0c7.102-0.905,14.492-3.21,17.819-6.855c0.789-19.761-7.905-35.946-13.021-52.083
	c-6.604-1.506-10.089,9.501-14.391,10.281c3.154-7.583,5.27-16.202,16.446-15.764c4.108,8.593,6.771,17.727,10.28,28.783
	c2.359,7.431,9.188,24.205,4.112,32.209c-3.965,6.253-35.979,10.224-45.916,6.854c-8.52-2.891-19.057-14.321-23.3-22.617
	c-17.25-33.697-9.85-100.539-13.707-155.562C307.147,138.65,303.766,117.443,307.172,100.989z"/>
<path fill-rule="evenodd" clip-rule="evenodd" d="M379.321,195.083c5.532-8.47,13.901-13.97,14.65-27.447
	c1.94-0.93,5.289-0.383,5.398-3.229c-17.894-4.758-45.235-10.445-65.549-4.844c1.646,5.052,4.749,4.718,9.254,5.651
	c-4.937-0.862-7.2,1.072-6.168,6.458c1.354,0.465,4.53-0.976,4.626,0.808c0.538,7.033-0.079,11.784,0.772,19.375
	c-5.191-2.64-1.69-14.377-6.172-17.76c1.198,4.602-0.849,12.156,0.773,17.76c1.892,6.528,15.547,13.931,22.363,14.531
	c8.344,0.731,17.418-3.968,22.363-6.459c7.073-3.563,19.116-9.103,20.821-14.53C393.86,184.539,388.372,193.744,379.321,195.083z"/>
<path fill-rule="evenodd" clip-rule="evenodd" fill="#FFFFFF" d="M216.026,170.205c0.457,0,0.914,0,1.371,0
	c-0.362,0.551-0.715,1.113-0.685,2.056C215.288,171.877,215.259,171.192,216.026,170.205z"/>
<path fill-rule="evenodd" clip-rule="evenodd" d="M319.507,331.252c-0.475,4.358,1.16,6.607,0.686,10.964
	c-2.826-1.97-2.528-7.063-6.168-8.224c-9.092,1.849-23.013-2.476-30.838,0c-4.78,1.515-3.625,5.325-6.854,8.224
	c-0.475-4.356,1.16-6.605,0.686-10.964C287.618,328.045,308.907,328.045,319.507,331.252z"/>
<path fill-rule="evenodd" clip-rule="evenodd" d="M149.551,332.623c-0.36,4.963-2.471,16.45-4.112,23.986
	c-1.605,7.371-2.655,15.521-4.797,22.612c-1.605,5.317-5.154,9.889-6.853,15.08c-1.574,4.804-2.135,10.631-3.427,15.761
	c-2.74,10.88-4.421,19.657-4.797,33.581c-0.174,6.47-0.557,13.285,0.685,19.187c2.167,10.3,10.173,20.292,16.448,29.47
	c16.112,23.564,30.398,42.326,55.509,57.564c4.835,2.935,9.175,6.789,13.707,8.91c11.028,5.162,24.916,8.769,37.691,12.336
	c30.581,8.537,58.854,9.313,93.202,1.368c6.779-1.568,13.86-4.406,20.56-6.853c7.28-2.655,14.518-4.101,20.56-6.852
	c14.082-6.411,30.659-18.561,41.118-28.782c8.618-8.426,17.386-20.129,24.67-30.841c3.435-5.05,7.291-10.857,10.965-17.133
	c3.427-5.851,8.221-12.244,9.596-17.816c1.503-6.1,0.875-13.101,0.685-19.19c-0.192-6.123-0.124-12.702-0.685-18.502
	c-0.846-8.735-4.065-16.934-6.169-25.356c-1.971-7.891-5.883-14.734-8.223-22.614c-4.381-14.752-4.972-30.101-9.596-45.229
	c2.206-0.434,4.52,4.692,5.483,7.538c3.561,10.512,4.377,23.761,7.538,35.634c1.628,6.115,5.677,11.701,7.538,17.82
	c1.389,4.564,2.125,9.934,3.428,15.074c3.155,12.477,6.332,32.033,4.795,49.343c-1.197,13.516-11.258,26.794-17.817,37.007
	c-5.989,9.33-13.227,17.813-19.188,25.356c-9.814,12.414-21.566,22.798-36.32,31.523c-4.526,2.68-8.824,6.794-13.021,8.909
	c-5.445,2.745-12.659,4.454-19.188,6.852c-12.897,4.739-26,8.071-41.118,10.968c-3.767,0.722-7.257,1.341-10.965,2.055
	c-7.222,1.394-16.457,3.981-27.412,2.743c-5.546-0.627-11.416-2.955-17.818-4.112c-15.358-2.776-27.662-5.361-41.118-10.281
	c-13-4.751-21.058-7.507-31.524-13.706c-11.392-6.748-21.46-13.922-30.839-23.3c-12.05-12.051-22.903-26.93-32.895-42.49
	c-6.749-10.51-12.244-18.087-13.707-30.838c-1.703-14.861-0.686-31.362,2.742-45.23c1.633-6.607,2.894-13.571,4.797-19.872
	c1.852-6.135,5.913-11.37,7.538-17.134C141.365,362.452,141.246,343.997,149.551,332.623z"/>
<path fill-rule="evenodd" clip-rule="evenodd" d="M166.684,355.923c0.797-0.112,1.22,0.15,1.371,0.687
	c10.836,5.605,14.292,15.294,22.615,21.93c4.752,3.789,11.391,6.308,17.133,9.593c5.508,3.153,10.035,7.936,15.076,10.966
	c7.913,4.755,17.965,8.375,27.413,11.65c10.062,3.488,21.039,6.85,32.209,6.166c8.481-0.518,15.101-2.327,23.985-1.368
	c6.48,0.695,15.689,1.944,24.671,0c13.412-2.909,28.137-8.953,41.119-16.448c5.666-3.27,11.148-8.381,17.133-11.651
	c6.703-3.661,13.492-6.537,17.817-10.278c8.16-7.062,12.216-16.979,22.615-21.245c-0.316,6.034-6.312,10.355-10.279,14.393
	c-4.159,4.231-7.979,9.073-12.336,12.336c-6.029,4.512-13.131,7.15-19.188,10.964c-3.417,2.151-5.775,4.754-8.909,6.853
	c-8.607,5.764-20.229,10.734-30.839,14.393c-7.886,2.718-15.694,5.244-23.986,6.166c-8.236,0.918-15.79-1.368-26.042-1.368
	c-6.428,0-12.223,1.985-17.818,2.054c-12.841,0.156-26.351-4.374-39.062-9.595c-11.057-4.54-20.483-10.112-29.468-16.447
	c-7.248-5.108-18.475-9.106-25.356-15.076c-2.991-2.595-5.565-7.608-9.594-11.649C172.543,364.514,166.358,362.931,166.684,355.923z
	"/>
<path fill-rule="evenodd" clip-rule="evenodd" d="M265.606,160.371c-4.635-5.965-13.285-2.781-20.822-2.422
	c-17.35,0.824-34.865,1.866-44.727,8.072c3.86,0.581,4.624-0.584,6.169,2.421c-1.758,13.953,9.452,18.624,11.567,25.833
	c-7.558-2.314-12.228-7.651-20.05-9.688c-1.141,4.886,6.653,8.158,12.339,11.301c5.265,2.912,11.678,7.218,16.965,8.88
	c13.75,4.322,30.692-2.021,35.473-12.108c1.767-3.728,0.161-8.699,0-12.917c-0.06-1.554,1.308-6.369,0-3.229
	c-2.995,3.592-1.146,12.254-5.398,14.53c-0.656-11.616,1.691-18.743-0.771-26.639C259.41,163.034,265.21,164.531,265.606,160.371z"
	/>
<path fill-rule="evenodd" clip-rule="evenodd" d="M301.004,535.473c18.478-2.537,30.731-11.302,42.488-20.559
	c-0.339-26.806-5.818-60.116-0.685-83.606c3.123,24.974,2.561,53.635,4.111,80.179c7.136-3.266,12.868-8.814,18.505-13.704
	c5.601-4.861,10.95-10.123,15.074-16.446c0.403-22.296-1.992-41.224-2.055-64.422c3.301,3.072,2.825,8.222,3.427,13.021
	c1.514,12.086,2.52,29.482,2.74,44.545c2.768-1.939,4.882-5.909,6.854-9.593c1.893-3.538,3.695-7.734,5.481-11.652
	c3.436-7.533,8.183-16.651,8.909-25.354c0.952-11.411-3.787-23.037-2.742-34.952c3.691,6.133,5.009,14.637,5.483,23.984
	c2.65-2.047,3.064-7.744,4.112-12.335c1.884-8.251,3.034-17.903,5.482-26.726c0.976-3.513,2.286-8.599,6.168-9.596
	c-3.74,20.481-8.496,39.001-13.706,58.938c-0.771,2.95-0.745,8.869-0.686,13.705c-1.021,2.735-2.89,1.052-4.798,2.058
	c-5.189,14.456-11.552,27.737-19.874,39.061c-0.268,2.473-0.886,4.596-1.369,6.855c-1.433,1.493-1.957-0.345-4.112,0
	c-10.725,13.089-26.791,23.681-41.804,34.263c-5.033,3.549-9.326,8.193-14.393,10.281c-3.531,1.455-7.518,1.411-10.965,2.74
	c-4.984,1.925-10.726,6.201-21.244,4.111c-2.855-0.565-6.967-3.397-10.965-4.797c-12.083-4.222-19.774-10.052-29.468-17.131
	c-12.454-9.098-24.649-18.731-33.58-28.783c-1.972-1.545-4.042,0.989-5.482-1.371c0.003-6.375-4.276-10.268-6.853-15.076
	c-4.883-9.111-9.563-18.537-13.707-29.468c-0.981-2.542-3.991,0.496-4.797-2.743c-1.737-27.048-10.474-47.091-14.392-71.956
	c3.91-0.158,5.172,5.348,6.168,8.909c3.282,11.734,4.742,28.147,8.909,39.061c1.327-9.179,3.483-17.53,5.482-26.039
	c3.102,10.533-2.99,23.003-2.056,36.32c1.238,17.679,14.133,34.257,20.559,47.971c1.382-13.906,1.801-31.199,3.427-44.544
	c0.604-4.955-0.172-10.664,3.427-13.708c-0.463,15.143-0.75,29.729-1.371,43.862c-0.287,6.513-2.325,13.992-0.686,20.56
	c1.395,5.584,10.696,12.642,15.077,16.446c5.939,5.16,11.38,10.105,17.818,13.704c2.59-25.507,2.117-54.078,4.111-80.179
	c4.77,10.39,2.68,24.633,2.056,38.375c-0.543,11.971-1.147,21.291-1.371,34.267c-0.056,3.26-1.091,7.999-0.686,9.595
	c0.81,3.185,4.587,4.54,8.909,7.538c3.917,2.715,6.009,5.241,8.909,6.853c7.739,4.304,15.874,4.964,23.985,7.538
	c0.783-32.133-1.642-76.231,1.371-106.223c2.659,1.876,3.236,0.897,3.427-1.368C303.562,453.896,301.51,502.442,301.004,535.473z"/>
<path fill-rule="evenodd" clip-rule="evenodd" fill="#519DBA" d="M264.726,83.856c-11.525,4.302-25.955,0.31-41.118,4.798
	c-5.666-3.206-6.917-12.629-4.112-19.189c14.893-2.189,28.218-1.039,41.804-3.426C265.615,70.216,266.831,76.605,264.726,83.856z"/>
<path fill-rule="evenodd" clip-rule="evenodd" fill="#519DBA" d="M376.431,70.15c3.029,5.159,3.678,11.887,1.371,17.818
	c-14.006-2.976-32.232-0.711-43.86-2.741c-1.603-5.157-4.143-11.797-0.686-17.818C345.518,68.163,365.645,65.809,376.431,70.15z"/>
<radialGradient id="SVGID_1_" cx="233.3184" cy="181.6738" r="20.1016" gradientTransform="matrix(0.9553 0 0 1 9.606 0)" gradientUnits="userSpaceOnUse">
	<stop  offset="0" style="stop-color:#81CFD2"/>
	<stop  offset="0.0138" style="stop-color:#86CBCB"/>
	<stop  offset="0.1759" style="stop-color:#ABAA97"/>
	<stop  offset="0.3359" style="stop-color:#C08B70"/>
	<stop  offset="0.4899" style="stop-color:#CE7153"/>
	<stop  offset="0.6366" style="stop-color:#D7573E"/>
	<stop  offset="0.7741" style="stop-color:#DD4031"/>
	<stop  offset="0.899" style="stop-color:#E12D2A"/>
	<stop  offset="1" style="stop-color:#E22528"/>
</radialGradient>
<path fill-rule="evenodd" clip-rule="evenodd" fill="url(#SVGID_1_)" d="M232.495,163.599c1.286,0,2.571,0,3.855,0
	c4.713,2.492,10.367-0.973,16.195,0c1.825,5.221-0.312,10.246,0.771,15.338c0,0.538,0,1.076,0,1.615
	c-0.566,10.439-4.583,17.268-13.11,19.374c-1.285,0-2.571,0-3.856,0c-11.684-4.453-18.082-14.438-24.675-24.217
	c0-0.27,0-0.539,0-0.807c0-2.691,0-5.381,0-8.073c3.166-1.259,7.998-0.775,10.795-2.421c0.772,0,1.542,0,2.313,0
	C227.127,163.901,231.426,165.441,232.495,163.599z"/>
<radialGradient id="SVGID_2_" cx="374.6406" cy="181.6895" r="20.3571" gradientTransform="matrix(0.9553 0 0 1 9.606 0)" gradientUnits="userSpaceOnUse">
	<stop  offset="0" style="stop-color:#81CFD2"/>
	<stop  offset="0.0138" style="stop-color:#86CBCB"/>
	<stop  offset="0.1759" style="stop-color:#ABAA97"/>
	<stop  offset="0.3359" style="stop-color:#C08B70"/>
	<stop  offset="0.4899" style="stop-color:#CE7153"/>
	<stop  offset="0.6366" style="stop-color:#D7573E"/>
	<stop  offset="0.7741" style="stop-color:#DD4031"/>
	<stop  offset="0.899" style="stop-color:#E12D2A"/>
	<stop  offset="1" style="stop-color:#E22528"/>
</radialGradient>
<path fill-rule="evenodd" clip-rule="evenodd" fill="url(#SVGID_2_)" d="M360.861,164.407c-0.99,2.353-1.912,4.773-2.313,5.651
	c1.74,0.446,5.972-3.415,7.711-5.651c2.829,0,5.655,0,8.484,0c0.769,0,1.54,0,2.312,0c2.794,1.379,6.601,1.701,10.797,1.614
	c0.172,0.626,0.02,1.592,0.771,1.614c1.082,8.398-3.237,11.142-5.4,16.145c-4.691,4.238-9.062,8.812-13.107,13.724
	c-3.695,2.898-11.662,3.191-16.195,0.808c-2.288-3.256-5.582-5.459-6.939-9.687c0-0.27,0-0.539,0-0.808
	c0.558-9.905-1.993-15.59,0-24.218C352.462,162.974,355.582,164.82,360.861,164.407z"/>
<path fill-rule="evenodd" clip-rule="evenodd" fill="#519DBA" d="M229.708,236.643c3.275,2.702,2.967,9.609-0.736,11.825
	c-6.968-0.487-12.688,0.667-18.397-0.91c-1.999-4.298-2.469-8.756,2.208-11.826C220.603,236.502,222.828,235.159,229.708,236.643z"
	/>
<path fill-rule="evenodd" clip-rule="evenodd" fill="#519DBA" d="M384.98,236.188c2.207,4.676,2.132,9.525-2.207,12.281
	c-4.564-0.71-10.968,0.878-16.928,0c-2.624-3.697-3.693-10.035,0.736-12.281C374.618,236.559,379.435,235.291,384.98,236.188z"/>
<path fill-rule="evenodd" clip-rule="evenodd" fill="#519DBA" d="M290.696,149.646c-0.136-8.998,0.179-13.379,1.125-20.559
	c0.189,0,0.376,0,0.564,0c2.027,1.758,7.873-1.142,11.269,0.686c0-0.229,0-0.457,0-0.686c0.188,0,0.377,0,0.563,0
	c1.584,6.756,0.663,16.555,1.69,23.986c-1.607,4.068,0.972,15.255,0,24.671c-2.406,3.349-0.735,9.093-0.563,13.707
	c1.133,30.337-3.593,56.307-5.07,80.868c-0.359,5.95,0.998,12.539-1.69,17.13c-3.397-5.213-2.485-12.662-2.817-19.188
	c-1.525-29.896-5.533-60.841-4.507-92.517c-0.919-3.817-0.453-13.035-0.563-19.874C292.227,157.548,292.633,147.665,290.696,149.646
	z"/>
</svg>
